<?xml version="1.0" standalone="no"?>
<!DOCTYPE svg PUBLIC "-//W3C//DTD SVG 20010904//EN"
 "http://www.w3.org/TR/2001/REC-SVG-20010904/DTD/svg10.dtd">
<svg version="1.0" xmlns="http://www.w3.org/2000/svg"
 width="800.000000pt" height="600.000000pt" viewBox="0 0 800.000000 600.000000"
 preserveAspectRatio="xMidYMid meet">

<g transform="translate(0.000000,600.000000) scale(0.100000,-0.100000)"
fill="#000000" stroke="none">
<path d="M674 5368 c-3 -4 11 -8 30 -8 20 0 36 2 36 4 0 8 -61 12 -66 4z"/>
<path d="M758 5363 c6 -2 18 -2 25 0 6 3 1 5 -13 5 -14 0 -19 -2 -12 -5z"/>
<path d="M866 5340 c14 -14 41 -21 107 -26 56 -4 87 -3 87 3 0 6 -27 10 -62
10 -35 0 -83 7 -107 16 -43 15 -44 15 -25 -3z"/>
<path d="M5891 5333 c0 -19 -8 -36 -18 -42 -17 -10 -17 -10 0 -11 18 0 20 -7
17 -52 -1 -15 4 -54 11 -85 9 -46 13 -54 20 -38 12 31 11 57 -2 49 -9 -5 -10
14 -7 69 3 42 2 80 -3 84 -4 4 -9 19 -12 33 -4 21 -4 20 -6 -7z"/>
<path d="M1435 5310 c4 -6 11 -8 16 -5 14 9 11 15 -7 15 -8 0 -12 -5 -9 -10z"/>
<path d="M2205 5200 c3 -5 8 -10 11 -10 2 0 4 5 4 10 0 6 -5 10 -11 10 -5 0
-7 -4 -4 -10z"/>
<path d="M5633 5134 c-20 -21 -16 -42 3 -22 9 9 15 21 13 26 -2 6 -9 4 -16 -4z"/>
<path d="M5904 5045 c-3 -13 -2 -42 4 -62 10 -37 10 -36 11 25 1 65 -4 79 -15
37z"/>
<path d="M587 5020 c4 -16 13 -20 42 -19 31 2 32 3 8 6 -16 3 -31 11 -34 19
-8 22 -22 17 -16 -6z"/>
<path d="M708 5003 c12 -2 30 -2 40 0 9 3 -1 5 -23 4 -22 0 -30 -2 -17 -4z"/>
<path d="M6288 4802 c-26 -20 -47 -43 -47 -51 -1 -7 -12 -26 -26 -43 -14 -16
-25 -37 -25 -45 0 -10 11 -2 28 20 15 20 33 36 40 37 6 0 12 5 12 11 0 6 16
33 36 60 20 27 34 49 32 48 -1 0 -24 -17 -50 -37z"/>
<path d="M6763 4720 c22 -14 127 -30 127 -20 0 4 -24 10 -54 14 -30 3 -63 9
-73 12 -17 5 -17 5 0 -6z"/>
<path d="M5474 4674 c4 -10 9 -24 10 -30 1 -6 9 -19 19 -28 9 -10 17 -25 18
-34 0 -9 3 -12 5 -5 6 14 -31 99 -48 109 -8 5 -9 2 -4 -12z"/>
<path d="M1545 4620 c-3 -5 -1 -10 4 -10 6 0 11 5 11 10 0 6 -2 10 -4 10 -3 0
-8 -4 -11 -10z"/>
<path d="M5180 4560 c-9 -6 -10 -10 -3 -10 6 0 15 5 18 10 8 12 4 12 -15 0z"/>
<path d="M5544 4515 c4 -15 20 -40 37 -56 16 -15 29 -34 29 -42 0 -9 4 -17 9
-19 5 -1 25 -48 45 -103 20 -55 43 -113 51 -130 50 -104 74 -168 85 -230 13
-72 27 -111 37 -101 3 3 0 19 -7 36 -20 48 -3 47 19 -1 39 -87 58 -135 70
-181 8 -27 18 -48 23 -48 6 0 7 8 3 18 -4 9 -12 33 -17 52 -12 44 -50 141 -87
222 -16 35 -34 80 -41 100 -6 21 -27 69 -46 108 -18 38 -45 96 -58 128 -50
117 -111 229 -124 224 -7 -2 -12 5 -12 17 0 11 -5 23 -11 27 -9 5 -10 -1 -5
-21z"/>
<path d="M1322 4494 c4 -23 27 -31 24 -8 -2 10 -8 20 -15 22 -8 3 -12 -3 -9
-14z"/>
<path d="M2735 4315 c6 -41 29 -483 30 -570 0 -38 3 -72 7 -75 4 -3 13 -60 19
-125 7 -66 16 -122 20 -125 5 -3 13 -24 19 -45 9 -40 10 -40 4 10 -2 28 -9 91
-15 140 -5 50 -14 171 -19 270 -20 371 -26 428 -59 520 l-11 30 5 -30z"/>
<path d="M2488 4293 c7 -3 16 -2 19 1 4 3 -2 6 -13 5 -11 0 -14 -3 -6 -6z"/>
<path d="M2440 4264 c0 -8 5 -12 10 -9 6 4 8 11 5 16 -9 14 -15 11 -15 -7z"/>
<path d="M6877 4223 c-16 -15 -3 -21 66 -28 143 -14 464 -7 471 10 2 7 -59 10
-183 10 -102 0 -222 3 -267 8 -44 4 -84 4 -87 0z"/>
<path d="M5315 4210 c3 -5 8 -10 11 -10 2 0 4 5 4 10 0 6 -5 10 -11 10 -5 0
-7 -4 -4 -10z"/>
<path d="M1302 4175 c-11 -12 -10 -15 3 -15 8 0 15 7 15 15 0 18 -2 18 -18 0z"/>
<path d="M5330 4181 c0 -6 4 -13 10 -16 6 -3 7 1 4 9 -7 18 -14 21 -14 7z"/>
<path d="M1302 4096 c-6 -19 -8 -79 -7 -135 2 -56 -1 -101 -5 -101 -5 0 -8
-14 -7 -32 2 -39 26 -51 28 -14 2 38 3 44 11 51 4 4 4 15 -1 24 -5 9 -7 25 -5
36 12 66 16 193 6 199 -7 4 -15 -7 -20 -28z"/>
<path d="M5360 4088 c0 -9 5 -20 10 -23 13 -8 13 5 0 25 -8 13 -10 13 -10 -2z"/>
<path d="M7060 3982 c0 -5 10 -17 22 -28 l21 -19 -18 28 c-18 28 -25 33 -25
19z"/>
<path d="M7185 3955 c-24 -49 -41 -61 -60 -41 -26 26 -31 18 -6 -8 22 -23 23
-66 1 -66 -4 0 -10 -7 -14 -15 -9 -25 10 -17 24 10 7 14 21 25 30 25 13 0 16
6 12 25 -2 14 0 31 6 38 13 15 34 67 27 67 -2 0 -11 -16 -20 -35z"/>
<path d="M5150 3971 l55 -6 -2 -255 c-3 -312 12 -283 21 43 l6 227 -67 -2 -68
-1 55 -6z"/>
<path d="M4995 3960 c-4 -7 8 -8 37 -4 57 9 61 14 10 14 -22 0 -44 -5 -47 -10z"/>
<path d="M5380 3955 c0 -8 5 -15 10 -15 6 0 10 7 10 15 0 8 -4 15 -10 15 -5 0
-10 -7 -10 -15z"/>
<path d="M4916 3929 c-6 -22 -25 -148 -31 -211 -3 -31 -8 -65 -11 -75 -5 -12
-4 -15 4 -8 6 6 15 53 21 105 6 52 15 117 20 145 9 46 7 76 -3 44z"/>
<path d="M2491 3854 c0 -11 3 -14 6 -6 3 7 2 16 -1 19 -3 4 -6 -2 -5 -13z"/>
<path d="M5460 3848 c0 -9 5 -20 10 -23 13 -8 13 5 0 25 -8 13 -10 13 -10 -2z"/>
<path d="M2082 3826 c3 -15 1 -26 -6 -26 -12 0 -127 -158 -161 -221 -21 -39
-59 -90 -87 -117 -9 -10 -47 -78 -84 -152 -37 -74 -73 -141 -81 -148 -7 -7
-15 -25 -19 -40 -3 -15 -9 -35 -15 -44 -5 -10 -9 -28 -9 -40 0 -14 20 16 49
74 27 54 60 112 74 130 13 18 43 71 67 118 24 47 55 102 69 124 14 21 36 57
49 80 20 35 118 172 143 200 5 5 15 4 24 -4 14 -12 18 -11 25 1 6 9 5 16 -5
19 -8 3 -11 10 -7 17 11 17 39 -7 57 -50 18 -43 19 -50 5 -42 -5 3 -7 0 -4 -9
3 -8 12 -17 20 -20 15 -6 19 -38 7 -50 -5 -4 -8 -11 -9 -14 -1 -17 -26 -96
-35 -111 -15 -27 -69 -171 -69 -185 0 -7 -13 -31 -30 -54 -16 -23 -25 -44 -21
-47 5 -3 16 7 24 22 7 16 23 45 35 66 12 21 22 44 22 52 0 8 9 19 20 25 11 6
20 19 20 30 0 10 11 50 25 87 14 37 28 81 30 97 6 39 10 41 39 22 34 -22 41
-4 11 28 -26 29 -32 51 -15 61 6 4 7 11 3 18 -4 7 -9 4 -13 -7 -5 -16 -8 -17
-21 -3 -8 8 -26 35 -41 60 -15 25 -41 53 -59 62 l-32 17 5 -26z"/>
<path d="M4043 3843 c9 -2 23 -2 30 0 6 3 -1 5 -18 5 -16 0 -22 -2 -12 -5z"/>
<path d="M2490 3814 c0 -8 5 -12 10 -9 6 4 8 11 5 16 -9 14 -15 11 -15 -7z"/>
<path d="M4320 3780 c0 -3 22 -13 49 -21 28 -8 48 -12 45 -8 -2 4 1 9 7 11 6
2 -15 8 -45 14 -31 5 -56 7 -56 4z"/>
<path d="M5480 3747 c0 -25 5 -49 11 -52 7 -5 8 8 3 41 -9 64 -14 68 -14 11z"/>
<path d="M4125 3767 c12 -6 78 -14 147 -16 17 -1 60 -28 125 -81 54 -44 102
-80 107 -80 16 0 -96 91 -185 151 -21 14 -37 28 -35 30 3 2 -35 4 -84 4 -49 0
-82 -3 -75 -8z"/>
<path d="M4068 3763 c7 -3 16 -2 19 1 4 3 -2 6 -13 5 -11 0 -14 -3 -6 -6z"/>
<path d="M4004 3750 c-23 -9 -42 -30 -27 -30 4 0 19 9 33 20 27 21 26 23 -6
10z"/>
<path d="M4456 3738 c10 -14 21 -24 23 -22 3 3 -6 15 -18 27 l-24 22 19 -27z"/>
<path d="M6145 3721 c-27 -15 -72 -41 -99 -59 -28 -18 -62 -32 -77 -32 -15 0
-30 -4 -34 -9 -8 -14 14 -24 28 -13 7 5 27 14 44 20 18 6 60 27 93 46 94 55
102 55 125 0 10 -26 20 -43 22 -38 4 13 -33 108 -43 110 -5 1 -31 -10 -59 -25z"/>
<path d="M4465 3694 c18 -17 35 -38 39 -45 3 -8 15 -27 26 -44 48 -73 76 -150
87 -239 3 -22 11 -46 18 -53 20 -20 38 -149 31 -220 -4 -35 -22 -108 -41 -161
-37 -103 -41 -122 -25 -122 6 0 10 7 10 16 0 9 6 30 14 47 23 50 43 117 55
180 6 32 13 63 17 68 3 5 7 40 8 77 2 37 1 57 -1 45 -7 -38 -18 -26 -36 40
-10 34 -28 94 -40 132 -12 39 -22 77 -22 85 0 9 -12 33 -25 55 -35 55 -47 77
-61 103 -7 12 -17 22 -23 22 -5 0 -22 10 -36 23 -14 12 -12 8 5 -9z"/>
<path d="M1251 3694 c0 -11 3 -14 6 -6 3 7 2 16 -1 19 -3 4 -6 -2 -5 -13z"/>
<path d="M4015 3680 c-3 -5 -1 -10 4 -10 6 0 11 5 11 10 0 6 -2 10 -4 10 -3 0
-8 -4 -11 -10z"/>
<path d="M2500 3636 c0 -19 5 -38 10 -41 6 -4 10 8 10 29 0 19 -4 38 -10 41
-6 4 -10 -8 -10 -29z"/>
<path d="M5517 3640 c3 -11 7 -20 9 -20 2 0 4 9 4 20 0 11 -4 20 -9 20 -5 0
-7 -9 -4 -20z"/>
<path d="M1244 3578 c-4 -40 -8 -79 -8 -87 -1 -8 -7 -16 -14 -19 -14 -4 -16
-32 -2 -32 6 0 10 5 10 11 0 5 5 7 10 4 13 -8 13 -52 1 -59 -5 -4 -11 0 -14 6
-10 27 -15 -1262 -5 -1372 13 -154 19 -208 27 -260 9 -56 7 -96 -10 -255 -16
-141 -17 -143 -76 -138 -26 2 -73 8 -103 14 -77 14 -551 31 -632 24 l-68 -7
21 59 c18 49 21 82 21 218 1 182 -9 315 -24 315 -5 0 -7 -8 -4 -17 8 -30 10
-344 2 -398 -12 -77 -36 -145 -52 -145 -8 0 -13 -8 -11 -21 1 -16 -7 -24 -38
-35 -22 -7 -41 -14 -41 -14 -1 0 -4 14 -7 30 -8 38 -27 39 -27 3 -1 -27 -1
-27 -16 -8 -13 17 -16 18 -24 5 -5 -8 -10 -21 -10 -27 0 -7 -4 -13 -10 -13 -5
0 -7 -7 -3 -16 4 -12 -1 -15 -23 -12 -24 2 -29 -1 -27 -17 1 -20 1 -20 -13 -1
-14 19 -14 19 -14 -2 0 -35 -20 -25 -21 11 -1 26 -2 27 -6 7 -8 -48 -16 -57
-23 -25 -4 17 -8 -271 -9 -638 l-1 -668 1073 4 c720 2 1083 7 1107 14 33 10
33 11 8 12 -34 1 -38 21 -5 21 13 0 27 3 30 6 8 8 -44 50 -57 46 -5 -2 -22 0
-38 3 -27 6 -28 8 -11 21 17 13 17 14 -4 20 -13 3 -23 13 -23 20 0 8 -7 14
-16 14 -23 0 -11 25 13 26 11 1 30 11 42 23 16 16 35 21 78 23 32 1 67 2 78 3
11 1 33 3 48 4 16 0 26 5 22 10 -3 6 -112 8 -260 7 l-255 -3 -6 34 c-7 35 -18
43 -28 18 -3 -8 -1 -15 3 -15 5 0 7 -9 4 -20 -7 -28 -35 -26 -33 3 1 12 2 33
1 47 l-2 25 -14 -25 c-10 -19 -10 -27 -2 -32 7 -5 2 -8 -12 -8 -25 0 -61 34
-61 58 0 12 -3 12 -16 1 -14 -11 -18 -10 -30 6 -20 26 -18 35 9 36 13 1 16 3
7 6 -8 2 -23 16 -34 30 -15 21 -16 27 -5 34 11 7 11 9 -3 9 -11 0 -21 -13 -29
-40 -7 -22 -18 -40 -25 -40 -20 0 -87 66 -80 79 4 6 0 14 -9 18 -10 3 -20 0
-25 -6 -5 -9 -9 -6 -13 8 -3 11 -16 25 -30 30 -14 5 -27 16 -30 23 -3 7 -6 1
-6 -14 -1 -35 -14 -35 -40 -2 -12 16 -27 24 -35 21 -10 -4 -13 -1 -9 9 4 11
-4 14 -35 14 -36 0 -41 3 -51 30 -12 35 -26 39 -34 9 -6 -23 -27 -17 -27 7 0
9 -11 14 -33 14 -29 0 -35 5 -46 36 -16 45 -7 53 59 54 25 0 128 6 230 14
l185 13 -140 3 c-77 2 -192 4 -255 5 -179 3 -175 2 -159 22 12 15 12 16 -4 10
-10 -4 -23 -7 -28 -7 -5 0 -9 -7 -9 -15 0 -16 -36 -21 -56 -7 -6 4 -17 27 -25
52 -10 32 -19 45 -32 44 -20 -2 -23 12 -4 19 9 4 9 8 -2 16 -11 7 -18 5 -27
-7 -10 -14 -12 -13 -19 7 -5 16 -12 21 -26 18 -10 -3 -19 -1 -19 4 0 5 -18 9
-40 9 -22 0 -40 -4 -40 -10 0 -5 -4 -10 -10 -10 -5 0 -10 11 -10 24 0 12 -11
35 -25 50 -25 27 -27 27 -51 11 -16 -10 -30 -13 -37 -7 -7 5 -33 15 -60 22
-45 12 -64 30 -32 30 41 0 -8 56 -57 65 -31 6 -37 11 -41 38 -3 18 -8 42 -12
55 -8 24 -16 22 129 26 16 1 31 7 33 14 4 9 -16 11 -82 9 -85 -3 -87 -2 -103
25 -9 15 -19 28 -23 28 -4 0 -5 9 -2 21 12 45 110 60 403 62 202 2 546 -15
557 -27 2 -2 -1 -15 -6 -29 -14 -36 -47 -41 -256 -42 -179 0 -205 -4 -205 -30
0 -10 11 -13 34 -12 19 2 38 5 41 9 3 3 38 4 78 2 64 -3 127 2 265 22 l42 7
-3 -87 c-2 -48 -9 -92 -15 -98 -17 -17 -15 -28 7 -28 15 0 20 10 26 52 4 28 7
78 7 110 0 32 4 61 9 64 5 3 7 9 4 13 -7 13 15 234 26 251 7 10 8 -16 4 -80
-7 -105 -8 -116 -20 -144 -6 -13 -4 -21 3 -24 11 -3 10 -54 -3 -158 -2 -17 1
-37 6 -45 7 -11 11 -10 24 6 9 11 14 15 11 10 -2 -6 -1 -17 4 -25 10 -16 16
11 31 150 6 52 14 129 20 170 5 41 11 127 14 190 l4 115 -14 -135 c-8 -74 -18
-166 -24 -205 -5 -38 -15 -110 -22 -159 -9 -65 -14 -84 -21 -71 -6 9 -7 26 -4
38 10 42 9 582 -2 580 -5 -1 -16 33 -23 75 -14 76 -16 191 -12 572 2 107 2
222 1 255 -2 88 15 499 26 640 2 21 9 41 15 43 15 5 15 158 0 168 -7 4 -9 0
-5 -12 3 -11 1 -26 -4 -34 -15 -24 -23 13 -18 85 8 90 -8 101 -18 13z m-226
-2875 c-2 -10 -10 -18 -18 -18 -8 0 -16 8 -18 18 -2 12 3 17 18 17 15 0 20 -5
18 -17z m109 -135 c-3 -8 -6 -5 -6 6 -1 11 2 17 5 13 3 -3 4 -12 1 -19z m50 0
c-3 -8 -6 -5 -6 6 -1 11 2 17 5 13 3 -3 4 -12 1 -19z m873 -343 c0 -8 -6 -15
-14 -15 -8 0 -16 7 -20 15 -4 10 1 15 14 15 11 0 20 -7 20 -15z"/>
<path d="M1310 3615 c0 -8 7 -15 15 -15 8 0 15 7 15 15 0 8 -7 15 -15 15 -8 0
-15 -7 -15 -15z"/>
<path d="M4862 3587 c-14 -29 -24 -139 -11 -132 5 4 10 0 11 -7 1 -7 4 25 8
72 3 47 5 86 5 87 -1 2 -7 -7 -13 -20z"/>
<path d="M5532 3580 c0 -14 2 -19 5 -12 2 6 2 18 0 25 -3 6 -5 1 -5 -13z"/>
<path d="M387 3551 c-4 -17 -3 -21 5 -13 5 5 8 16 6 23 -3 8 -7 3 -11 -10z"/>
<path d="M5350 3549 c0 -5 5 -7 10 -4 6 3 10 8 10 11 0 2 -4 4 -10 4 -5 0 -10
-5 -10 -11z"/>
<path d="M5278 3523 c6 -2 18 -2 25 0 6 3 1 5 -13 5 -14 0 -19 -2 -12 -5z"/>
<path d="M380 3483 c0 -43 5 -41 13 5 4 18 2 32 -3 32 -6 0 -10 -16 -10 -37z"/>
<path d="M6311 3494 c0 -11 3 -14 6 -6 3 7 2 16 -1 19 -3 4 -6 -2 -5 -13z"/>
<path d="M4102 3471 c-10 -6 -8 -10 8 -14 22 -6 22 -9 16 -84 -3 -43 -7 -176
-8 -295 l-1 -217 -49 -10 c-64 -14 -91 -14 -106 1 -9 9 -12 8 -12 -5 0 -24 44
-32 102 -18 55 12 68 9 68 -20 0 -30 20 -22 21 9 1 15 0 32 -1 37 -8 25 3 582
11 595 7 12 8 12 9 1 0 -8 3 -11 6 -8 10 10 -16 37 -35 37 -9 0 -22 -4 -29 -9z"/>
<path d="M985 3460 c3 -5 20 -10 36 -10 18 0 28 4 24 10 -3 6 -20 10 -36 10
-18 0 -28 -4 -24 -10z"/>
<path d="M3970 3440 c-8 -5 -12 -12 -9 -15 4 -3 12 1 19 10 14 17 11 19 -10 5z"/>
<path d="M4646 3437 c3 -10 9 -15 12 -12 3 3 0 11 -7 18 -10 9 -11 8 -5 -6z"/>
<path d="M4830 3415 c0 -14 2 -25 4 -25 2 0 6 11 8 25 3 14 1 25 -3 25 -5 0
-9 -11 -9 -25z"/>
<path d="M6948 3403 c-3 -21 -1 -43 4 -50 5 -6 8 -24 7 -40 -4 -38 11 -144 23
-163 6 -10 7 2 3 35 -3 28 -10 95 -16 150 -6 55 -12 101 -13 103 -2 2 -6 -14
-8 -35z"/>
<path d="M377 3408 c-11 -41 -30 -298 -23 -305 11 -12 16 3 21 67 7 78 14 260
10 260 -2 0 -5 -10 -8 -22z"/>
<path d="M6350 3425 c0 -5 5 -17 10 -25 5 -8 10 -10 10 -5 0 6 -5 17 -10 25
-5 8 -10 11 -10 5z"/>
<path d="M4862 3400 c0 -14 2 -19 5 -12 2 6 2 18 0 25 -3 6 -5 1 -5 -13z"/>
<path d="M3962 3385 c0 -16 2 -22 5 -12 2 9 2 23 0 30 -3 6 -5 -1 -5 -18z"/>
<path d="M7258 3403 c7 -3 16 -2 19 1 4 3 -2 6 -13 5 -11 0 -14 -3 -6 -6z"/>
<path d="M2542 3380 c0 -14 2 -19 5 -12 2 6 2 18 0 25 -3 6 -5 1 -5 -13z"/>
<path d="M6367 3374 c-8 -8 3 -34 14 -34 11 0 12 27 0 34 -4 3 -11 3 -14 0z"/>
<path d="M4820 3346 c0 -14 -4 -28 -10 -31 -5 -3 -10 -13 -10 -22 0 -12 3 -13
14 -4 16 14 27 69 14 77 -4 3 -8 -6 -8 -20z"/>
<path d="M4850 3361 c0 -6 5 -13 10 -16 6 -3 10 1 10 9 0 9 -4 16 -10 16 -5 0
-10 -4 -10 -9z"/>
<path d="M3221 3336 c7 -15 15 -23 17 -16 3 7 -3 19 -13 28 -15 16 -16 15 -4
-12z"/>
<path d="M6195 3334 c-27 -8 -77 -29 -110 -46 -38 -20 -60 -27 -63 -19 -8 25
-18 9 -14 -24 l4 -35 34 30 c45 39 89 57 161 65 63 7 123 25 123 36 0 4 -19 0
-42 -8 -22 -8 -51 -12 -62 -10 -16 3 -15 5 7 6 15 0 27 6 27 11 0 13 -4 12
-65 -6z"/>
<path d="M7533 3300 c0 -30 2 -43 4 -27 2 15 2 39 0 55 -2 15 -4 2 -4 -28z"/>
<path d="M1306 3194 c1 -80 6 -150 11 -155 6 -6 9 42 7 128 -3 175 -2 173 -12
173 -4 0 -7 -66 -6 -146z"/>
<path d="M5631 3319 c-14 -11 -31 -17 -42 -14 -10 4 -29 -1 -41 -9 -12 -9 -32
-16 -43 -16 -11 0 -51 -11 -88 -25 -37 -13 -143 -40 -234 -60 -109 -23 -191
-47 -241 -70 -86 -40 -82 -39 -82 -21 0 8 -4 18 -10 21 -7 4 -7 -3 0 -20 9
-23 7 -28 -10 -32 -11 -3 -20 -9 -20 -14 0 -12 42 -5 77 14 18 9 39 17 48 17
10 0 13 5 9 11 -5 8 0 10 17 6 13 -3 42 -2 64 4 22 5 81 16 130 24 192 31 262
49 343 87 35 16 75 33 89 39 14 5 23 12 19 16 -3 4 6 19 21 35 31 33 28 36 -6
7z m-46 -48 c-12 -12 -65 -25 -65 -17 0 8 39 24 60 25 9 1 10 -2 5 -8z m-75
-10 c0 -27 -122 -71 -194 -70 l-51 0 85 26 c47 14 99 32 115 39 35 16 45 17
45 5z m-390 -111 c-14 -4 -34 -8 -45 -8 l-20 -1 20 9 c11 5 31 8 45 8 l25 0
-25 -8z"/>
<path d="M4851 3314 c0 -11 3 -14 6 -6 3 7 2 16 -1 19 -3 4 -6 -2 -5 -13z"/>
<path d="M3953 3230 c0 -30 2 -43 4 -27 2 15 2 39 0 55 -2 15 -4 2 -4 -28z"/>
<path d="M4842 3260 c0 -14 2 -19 5 -12 2 6 2 18 0 25 -3 6 -5 1 -5 -13z"/>
<path d="M7532 3220 c0 -14 2 -19 5 -12 2 6 2 18 0 25 -3 6 -5 1 -5 -13z"/>
<path d="M4820 3188 c-6 -24 -20 -66 -30 -95 -13 -35 -16 -54 -9 -59 6 -3 16
-1 22 5 6 6 8 11 4 11 -3 0 -2 12 5 28 6 15 12 43 13 62 1 19 6 47 10 63 4 15
5 27 1 27 -3 0 -10 -19 -16 -42z"/>
<path d="M3241 3162 c0 -34 4 -64 10 -67 12 -8 12 95 0 114 -6 10 -9 -6 -10
-47z"/>
<path d="M5621 3204 c-1 -11 4 -47 10 -79 8 -46 8 -60 -2 -66 -10 -6 -9 -17 8
-51 12 -24 28 -63 36 -88 9 -25 22 -61 31 -81 8 -20 13 -39 10 -42 -3 -3 2
-17 12 -31 9 -15 14 -29 11 -33 -4 -3 -1 -15 5 -26 9 -17 8 -19 -6 -14 -20 8
-20 6 -2 -35 15 -35 82 -241 111 -345 10 -35 22 -63 27 -63 13 0 10 28 -7 60
-9 17 -15 31 -14 32 1 2 -8 35 -19 73 -38 126 -60 209 -67 255 -12 81 -143
566 -144 534z"/>
<path d="M4600 3195 c0 -8 2 -15 4 -15 2 0 6 7 10 15 3 8 1 15 -4 15 -6 0 -10
-7 -10 -15z"/>
<path d="M3540 3174 c0 -8 5 -12 10 -9 6 3 10 10 10 16 0 5 -4 9 -10 9 -5 0
-10 -7 -10 -16z"/>
<path d="M6012 3160 c0 -19 2 -27 5 -17 2 9 2 25 0 35 -3 9 -5 1 -5 -18z"/>
<path d="M6011 3104 c0 -11 3 -14 6 -6 3 7 2 16 -1 19 -3 4 -6 -2 -5 -13z"/>
<path d="M6986 3112 c-3 -6 -1 -14 5 -17 15 -10 25 3 12 16 -7 7 -13 7 -17 1z"/>
<path d="M4702 3090 c0 -14 2 -19 5 -12 2 6 2 18 0 25 -3 6 -5 1 -5 -13z"/>
<path d="M6070 3072 c0 -11 7 -23 16 -26 8 -3 13 -10 9 -15 -3 -5 -1 -12 5
-16 18 -11 11 26 -10 52 -18 24 -20 24 -20 5z"/>
<path d="M346 3063 c-11 -11 -6 -23 9 -23 8 0 15 4 15 9 0 13 -16 22 -24 14z"/>
<path d="M3521 3054 c0 -11 3 -14 6 -6 3 7 2 16 -1 19 -3 4 -6 -2 -5 -13z"/>
<path d="M6021 3055 c0 -11 9 -31 20 -45 l20 -25 -14 30 c-8 17 -17 37 -20 45
-4 11 -6 9 -6 -5z"/>
<path d="M6990 3060 c0 -5 5 -10 10 -10 6 0 10 5 10 10 0 6 -4 10 -10 10 -5 0
-10 -4 -10 -10z"/>
<path d="M3946 2983 c9 -91 14 -92 14 -5 0 43 -4 72 -10 72 -7 0 -8 -24 -4
-67z"/>
<path d="M342 3010 c0 -14 2 -19 5 -12 2 6 2 18 0 25 -3 6 -5 1 -5 -13z"/>
<path d="M4711 3004 c0 -11 3 -14 6 -6 3 7 2 16 -1 19 -3 4 -6 -2 -5 -13z"/>
<path d="M3514 2920 c0 -52 1 -74 3 -47 2 26 2 68 0 95 -2 26 -3 4 -3 -48z"/>
<path d="M2400 2988 c-54 -12 -83 -34 -32 -24 18 3 31 2 29 -2 -3 -4 -1 -16 4
-27 7 -17 8 -17 8 8 1 23 5 27 31 27 28 0 40 -13 23 -23 -10 -6 0 -185 11
-209 12 -26 -9 -22 -23 5 -12 24 -13 32 9 -203 5 -58 11 -185 12 -282 2 -137
6 -179 16 -183 8 -3 13 -17 12 -32 -3 -48 3 -50 9 -3 5 31 2 50 -7 61 -10 13
-12 55 -8 185 2 93 5 171 6 174 1 3 6 -6 10 -20 12 -38 12 82 0 155 -17 101
-25 186 -25 262 0 62 3 75 24 97 14 14 21 29 17 33 -4 4 -11 1 -17 -7 -8 -13
-11 -13 -23 3 -15 19 -21 19 -86 5z m89 -350 c0 -10 -3 -18 -9 -18 -5 0 -9 21
-9 48 1 42 2 44 9 17 4 -16 8 -38 9 -47z"/>
<path d="M6110 2984 c0 -8 5 -25 11 -36 10 -18 9 -20 -5 -15 -21 8 -21 6 15
-66 46 -92 56 -116 74 -182 9 -33 36 -123 60 -201 24 -78 42 -154 40 -169 -1
-16 4 -35 12 -43 19 -20 26 -10 14 21 -6 14 -7 42 -4 61 3 22 2 36 -5 36 -12
0 -22 29 -57 165 -14 55 -32 118 -40 140 -8 22 -16 54 -18 70 -3 33 -22 71
-45 94 -9 9 -11 16 -4 19 7 2 7 13 0 35 -5 18 -10 37 -11 44 0 6 -7 9 -15 6
-11 -5 -13 -1 -7 15 4 13 2 22 -4 22 -6 0 -11 -7 -11 -16z"/>
<path d="M2235 2979 c-100 -9 -536 -12 -558 -3 -10 3 -17 1 -17 -5 0 -6 4 -11
10 -11 5 0 32 -10 60 -22 41 -18 50 -26 50 -47 1 -22 3 -24 13 -11 7 8 19 21
28 28 20 15 193 37 369 48 83 4 129 11 138 20 11 11 11 14 0 12 -7 0 -49 -4
-93 -9z"/>
<path d="M6985 2948 c13 -106 13 -118 -1 -118 -8 0 -14 -4 -14 -10 0 -5 7 -10
15 -10 10 0 15 -10 15 -27 0 -16 5 -35 11 -43 7 -11 9 4 5 55 -11 134 -19 185
-27 185 -4 0 -6 -15 -4 -32z"/>
<path d="M1335 2931 c-3 -6 -3 -34 0 -63 7 -57 13 -160 14 -220 1 -21 4 -38 9
-38 8 0 -1 316 -10 325 -3 4 -9 2 -13 -4z"/>
<path d="M1685 2930 c-3 -5 3 -10 15 -10 12 0 18 5 15 10 -3 6 -10 10 -15 10
-5 0 -12 -4 -15 -10z"/>
<path d="M2856 2843 c2 -54 7 -138 10 -188 4 -49 6 -169 5 -265 -2 -163 9
-351 25 -427 6 -30 4 -33 -17 -34 -17 -1 -19 -3 -6 -6 11 -3 17 -14 17 -34 0
-16 4 -29 10 -29 16 0 23 48 15 103 -4 29 -9 97 -11 152 -1 55 -5 141 -8 192
-4 56 -2 94 4 98 6 3 10 -2 10 -12 0 -23 29 -66 30 -44 0 12 -9 76 -40 281
-17 118 -25 191 -28 273 -1 20 -6 37 -11 37 -6 0 -8 -41 -5 -97z"/>
<path d="M321 2834 c0 -11 3 -14 6 -6 3 7 2 16 -1 19 -3 4 -6 -2 -5 -13z"/>
<path d="M4415 2830 c-3 -5 -1 -10 4 -10 6 0 11 5 11 10 0 6 -2 10 -4 10 -3 0
-8 -4 -11 -10z"/>
<path d="M5670 2815 c0 -5 5 -17 10 -25 5 -8 10 -10 10 -5 0 6 -5 17 -10 25
-5 8 -10 11 -10 5z"/>
<path d="M4375 2780 c-16 -16 -25 -33 -22 -37 7 -6 27 15 48 50 14 25 7 21
-26 -13z"/>
<path d="M4577 2799 c9 -9 10 -16 1 -26 -6 -7 -8 -17 -4 -20 8 -8 26 15 26 33
0 7 -8 15 -17 19 -14 5 -15 4 -6 -6z"/>
<path d="M310 2717 c0 -26 4 -47 9 -47 8 0 3 79 -5 89 -2 2 -4 -17 -4 -42z"/>
<path d="M5701 2734 c0 -11 3 -14 6 -6 3 7 2 16 -1 19 -3 4 -6 -2 -5 -13z"/>
<path d="M4008 2729 c-29 -17 -20 -28 12 -16 25 9 33 9 47 -6 16 -16 16 -17
-7 -18 -15 0 -19 -3 -10 -6 57 -21 66 -76 19 -122 -37 -37 -43 -38 -74 -7 -31
31 -41 72 -27 110 16 41 5 47 -12 5 -15 -36 -10 -58 25 -116 27 -43 57 -43 98
-1 38 39 40 83 8 143 -23 42 -49 53 -79 34z"/>
<path d="M4567 2733 c-4 -3 -7 -11 -7 -17 0 -6 5 -5 12 2 6 6 9 14 7 17 -3 3
-9 2 -12 -2z"/>
<path d="M4335 2720 c-3 -5 -1 -10 4 -10 6 0 11 5 11 10 0 6 -2 10 -4 10 -3 0
-8 -4 -11 -10z"/>
<path d="M4495 2719 c-4 -6 -5 -12 -2 -15 2 -3 7 2 10 11 7 17 1 20 -8 4z"/>
<path d="M346 2698 c-3 -13 -6 -38 -6 -55 0 -18 -5 -33 -11 -33 -6 0 -9 7 -6
15 4 8 2 17 -3 20 -8 5 -18 -365 -12 -445 0 -8 -3 -57 -8 -108 -16 -157 -15
-240 5 -221 9 10 15 128 17 368 1 194 5 249 14 239 7 -8 16 -92 24 -223 6
-115 16 -217 22 -225 8 -13 5 103 -7 230 -2 19 -6 129 -10 245 -3 115 -7 211
-9 213 -2 1 -6 -8 -10 -20z"/>
<path d="M7011 2704 c0 -11 3 -14 6 -6 3 7 2 16 -1 19 -3 4 -6 -2 -5 -13z"/>
<path d="M4308 2675 c-10 -13 -18 -30 -18 -37 0 -7 10 2 21 20 25 38 22 51 -3
17z"/>
<path d="M4532 2665 c-12 -19 -19 -35 -15 -35 12 1 45 49 41 60 -2 5 -13 -6
-26 -25z"/>
<path d="M7020 2605 c0 -19 4 -35 8 -35 4 0 6 16 4 35 -2 19 -6 35 -8 35 -2 0
-4 -16 -4 -35z"/>
<path d="M1348 2563 c7 -3 16 -2 19 1 4 3 -2 6 -13 5 -11 0 -14 -3 -6 -6z"/>
<path d="M4217 2534 c-10 -13 -14 -24 -10 -24 9 0 36 40 31 45 -2 2 -11 -8
-21 -21z"/>
<path d="M7037 2495 c3 -38 7 -72 9 -74 7 -8 2 84 -6 114 -5 18 -6 2 -3 -40z"/>
<path d="M4361 2526 c-9 -10 -8 -15 4 -20 10 -4 15 1 15 14 0 24 -4 25 -19 6z"/>
<path d="M4345 2490 c3 -5 2 -10 -3 -10 -5 0 -43 -33 -84 -72 -91 -87 -104
-98 -118 -98 -6 0 -9 -4 -6 -9 3 -5 -13 -12 -37 -16 -31 -6 -36 -9 -19 -12 19
-4 21 -7 11 -19 -6 -8 -19 -14 -28 -15 -10 0 -12 -2 -3 -6 21 -8 113 58 194
142 43 44 78 83 78 87 0 4 9 10 20 13 20 6 19 25 -1 25 -6 0 -7 -4 -4 -10z"/>
<path d="M4140 2445 c-24 -25 -40 -45 -35 -45 9 0 43 33 74 73 24 31 6 18 -39
-28z"/>
<path d="M6245 2441 c-3 -5 -1 -12 5 -16 5 -3 10 1 10 9 0 18 -6 21 -15 7z"/>
<path d="M7057 2345 c3 -38 7 -72 9 -74 9 -10 3 115 -6 129 -6 10 -7 -9 -3
-55z"/>
<path d="M2523 2310 c0 -41 2 -58 4 -37 2 20 2 54 0 75 -2 20 -4 3 -4 -38z"/>
<path d="M4020 2360 c-25 -11 -38 -19 -30 -19 8 0 33 8 55 18 51 25 34 25 -25
1z"/>
<path d="M3700 2356 c0 -2 8 -10 18 -17 15 -13 16 -12 3 4 -13 16 -21 21 -21
13z"/>
<path d="M2916 2295 c3 -27 9 -74 12 -104 4 -33 13 -56 21 -59 11 -4 12 1 7
19 -18 60 -26 97 -26 129 0 19 -5 42 -10 50 -7 11 -9 0 -4 -35z"/>
<path d="M3790 2266 c0 -2 7 -7 16 -10 8 -3 12 -2 9 4 -6 10 -25 14 -25 6z"/>
<path d="M3958 2263 c7 -3 16 -2 19 1 4 3 -2 6 -13 5 -11 0 -14 -3 -6 -6z"/>
<path d="M6068 2253 c7 -3 16 -2 19 1 4 3 -2 6 -13 5 -11 0 -14 -3 -6 -6z"/>
<path d="M7071 2244 c0 -11 3 -14 6 -6 3 7 2 16 -1 19 -3 4 -6 -2 -5 -13z"/>
<path d="M6000 2240 c-20 -6 -21 -8 -5 -8 11 0 29 3 40 8 25 11 -1 11 -35 0z"/>
<path d="M1311 2224 c0 -11 3 -14 6 -6 3 7 2 16 -1 19 -3 4 -6 -2 -5 -13z"/>
<path d="M1375 2231 c-3 -5 -1 -12 5 -16 5 -3 10 1 10 9 0 18 -6 21 -15 7z"/>
<path d="M3961 2212 c-24 -11 -24 -12 14 -6 22 3 47 9 55 14 24 13 -39 7 -69
-8z"/>
<path d="M450 2210 c0 -5 7 -10 15 -10 8 0 15 5 15 10 0 6 -7 10 -15 10 -8 0
-15 -4 -15 -10z"/>
<path d="M5890 2170 c0 -5 5 -10 11 -10 5 0 7 5 4 10 -3 6 -8 10 -11 10 -2 0
-4 -4 -4 -10z"/>
<path d="M1301 2094 c0 -11 3 -14 6 -6 3 7 2 16 -1 19 -3 4 -6 -2 -5 -13z"/>
<path d="M1292 1950 c0 -14 2 -19 5 -12 2 6 2 18 0 25 -3 6 -5 1 -5 -13z"/>
<path d="M2487 1964 c-4 -4 -7 -14 -7 -23 0 -11 3 -12 11 -4 6 6 10 16 7 23
-2 6 -7 8 -11 4z"/>
<path d="M2655 1923 c11 -2 25 -11 32 -19 9 -13 123 -38 123 -28 0 9 -101 46
-135 48 -22 2 -31 2 -20 -1z"/>
<path d="M1288 1875 c-2 -25 0 -45 4 -45 5 0 8 20 8 45 0 25 -2 45 -4 45 -2 0
-6 -20 -8 -45z"/>
<path d="M2525 1910 c3 -5 13 -10 21 -10 8 0 12 5 9 10 -3 6 -13 10 -21 10 -8
0 -12 -4 -9 -10z"/>
<path d="M2805 1910 c-3 -5 1 -10 9 -10 8 0 18 5 21 10 3 6 -1 10 -9 10 -8 0
-18 -4 -21 -10z"/>
<path d="M3974 1863 c2 -21 12 -90 21 -153 18 -120 14 -265 -7 -258 -6 2 -25
42 -43 88 -92 242 -111 258 -100 89 11 -164 12 -236 2 -281 -5 -25 -4 -38 2
-38 23 0 30 114 19 274 -5 64 -4 96 2 90 5 -5 34 -70 63 -144 29 -73 58 -135
64 -137 7 -3 14 23 18 69 14 149 13 166 -21 406 -7 45 -26 41 -20 -5z"/>
<path d="M1371 1804 c0 -11 3 -14 6 -6 3 7 2 16 -1 19 -3 4 -6 -2 -5 -13z"/>
<path d="M5095 1813 c-29 -8 -76 -43 -70 -53 3 -4 22 1 42 11 21 11 49 18 63
17 22 -3 26 -12 47 -98 13 -52 25 -142 28 -199 3 -57 7 -107 10 -109 3 -3 5
37 5 89 0 71 -6 121 -27 201 -15 59 -25 109 -22 112 3 3 47 6 99 7 66 1 89 4
76 11 -19 11 -221 20 -251 11z"/>
<path d="M2413 1780 c-128 -11 -195 -43 -179 -87 6 -15 9 -14 19 7 13 26 68
48 124 49 49 1 51 -22 27 -343 -6 -72 -4 -84 14 -106 36 -44 44 -17 46 142 0
79 -4 182 -9 230 l-11 87 84 7 c53 4 98 3 120 -4 41 -13 53 -9 24 7 -29 16
-143 21 -259 11z m14 -377 c-2 -16 -4 -5 -4 22 0 28 2 40 4 28 2 -13 2 -35 0
-50z"/>
<path d="M1367 1764 c-4 -4 -7 -14 -7 -23 0 -11 3 -12 11 -4 6 6 10 16 7 23
-2 6 -7 8 -11 4z"/>
<path d="M4390 1681 c0 -5 5 -13 11 -16 6 -4 10 -23 9 -44 -1 -20 -1 -39 0
-43 4 -12 5 -19 13 -63 11 -58 17 -75 26 -75 4 0 2 29 -4 65 -13 70 -12 75 19
76 18 0 16 2 -6 11 -20 7 -30 20 -38 48 -10 36 -30 64 -30 41z"/>
<path d="M5252 1643 c-12 -2 -20 -8 -17 -13 3 -5 17 -5 32 1 15 6 38 7 51 4
15 -4 21 -2 17 5 -6 10 -39 11 -83 3z"/>
<path d="M4526 1624 c-4 -9 -4 -19 -1 -22 2 -3 7 3 11 12 4 9 4 19 1 22 -2 3
-7 -3 -11 -12z"/>
<path d="M5762 1618 c-7 -7 -12 -19 -12 -27 1 -13 2 -13 11 2 5 9 17 17 24 17
8 0 15 5 15 10 0 14 -23 13 -38 -2z"/>
<path d="M5139 1603 c-13 -15 -12 -15 11 -3 34 17 36 20 18 20 -9 0 -22 -7
-29 -17z"/>
<path d="M4315 1601 c3 -6 22 -11 42 -11 45 0 39 8 -11 16 -26 4 -36 2 -31 -5z"/>
<path d="M5359 1586 c-45 -39 -45 -60 -1 -108 l40 -42 31 31 c17 17 31 36 31
42 0 6 -13 -3 -30 -21 l-30 -33 -30 33 c-44 48 -36 92 17 92 14 0 23 6 23 15
0 22 -21 18 -51 -9z"/>
<path d="M2897 1584 c-41 -22 -27 -28 17 -8 34 17 37 17 56 -1 11 -10 20 -25
21 -34 0 -11 2 -12 6 -3 8 21 -25 62 -50 62 -12 -1 -35 -8 -50 -16z"/>
<path d="M5511 1582 c-1 -22 34 -102 45 -102 2 0 -1 10 -7 23 -7 12 -18 40
-25 62 -9 28 -13 33 -13 17z"/>
<path d="M5960 1590 c-11 -7 -6 -10 22 -10 28 0 41 -6 57 -27 14 -19 20 -23
21 -12 0 38 -66 71 -100 49z"/>
<path d="M4198 1577 c-19 -16 -41 -72 -35 -89 3 -7 6 -4 6 8 1 12 10 33 22 48
l21 27 25 -27 c13 -14 27 -23 31 -19 4 4 1 10 -5 12 -7 3 -13 11 -13 18 0 22
-34 36 -52 22z"/>
<path d="M5445 1559 c11 -13 21 -26 22 -28 2 -2 3 3 3 12 0 9 -10 22 -22 28
l-23 12 20 -24z"/>
<path d="M3138 1548 c-28 -43 -50 -208 -28 -208 7 0 10 7 7 15 -8 20 12 134
31 169 13 27 16 28 27 12 7 -9 16 -40 19 -69 7 -54 26 -100 26 -64 0 26 24 97
32 97 11 0 24 -30 38 -88 11 -47 31 -81 29 -50 -1 27 -54 163 -64 163 -5 0
-14 -15 -20 -32 -11 -40 -23 -42 -30 -5 -8 36 -27 75 -41 79 -6 2 -18 -7 -26
-19z"/>
<path d="M5932 1540 c0 -14 2 -19 5 -12 2 6 2 18 0 25 -3 6 -5 1 -5 -13z"/>
<path d="M2636 1529 c-40 -32 -35 -72 15 -120 38 -37 79 -52 79 -29 0 6 -8 10
-18 10 -10 0 -31 14 -47 30 -16 17 -24 30 -19 30 6 0 19 7 30 15 18 14 17 14
-10 5 -37 -14 -51 4 -29 37 18 27 49 30 75 6 10 -9 18 -11 18 -5 0 13 -39 42
-56 42 -6 0 -23 -9 -38 -21z"/>
<path d="M5730 1495 c0 -27 2 -46 4 -44 8 8 10 78 3 85 -4 4 -7 -14 -7 -41z"/>
<path d="M7116 1469 c-6 -65 -3 -90 8 -78 8 8 14 127 6 138 -4 7 -10 -20 -14
-60z"/>
<path d="M2956 1444 c-12 -8 -43 -14 -77 -14 -59 0 -87 -16 -75 -45 8 -22 59
-19 101 6 27 17 45 20 75 15 25 -4 40 -2 40 4 0 5 -7 10 -15 10 -9 0 -19 9
-23 19 -6 17 -9 18 -26 5z m-46 -32 c0 -10 -45 -32 -65 -32 -25 0 -27 20 -3
29 29 12 68 14 68 3z"/>
<path d="M2578 1443 c7 -3 16 -2 19 1 4 3 -2 6 -13 5 -11 0 -14 -3 -6 -6z"/>
<path d="M4180 1440 c-21 -7 -21 -8 -5 -9 11 0 27 4 35 9 18 11 5 11 -30 0z"/>
<path d="M5970 1446 c0 -14 29 -36 47 -35 14 0 15 2 3 6 -8 3 -23 12 -32 21
-10 8 -18 12 -18 8z"/>
<path d="M5830 1430 c0 -5 5 -10 11 -10 5 0 7 5 4 10 -3 6 -8 10 -11 10 -2 0
-4 -4 -4 -10z"/>
<path d="M3040 1420 c-9 -6 -10 -10 -3 -10 6 0 15 5 18 10 8 12 4 12 -15 0z"/>
<path d="M5600 1419 c0 -5 5 -7 10 -4 6 3 10 8 10 11 0 2 -4 4 -10 4 -5 0 -10
-5 -10 -11z"/>
<path d="M6609 1346 c-2 -2 -47 -6 -99 -10 -296 -20 -375 -28 -382 -39 -5 -7
-8 -8 -8 -1 0 5 -14 9 -32 7 -97 -9 -268 -14 -568 -18 -184 -2 -351 -6 -370
-8 -19 -2 -103 -8 -187 -11 -83 -4 -182 -11 -220 -15 l-68 -8 55 -2 c30 -2 51
-4 45 -7 -24 -9 -155 -20 -155 -12 0 4 8 8 17 8 9 0 14 3 10 6 -9 9 -88 -7
-81 -17 3 -5 -2 -9 -11 -9 -9 0 -13 5 -10 10 3 5 -4 10 -15 10 -15 0 -20 -5
-17 -14 4 -11 -11 -14 -75 -15 -44 -1 -88 -5 -97 -10 -9 -5 -81 -9 -159 -10
-79 -1 -147 -3 -152 -6 -4 -2 -47 -7 -96 -11 -49 -3 -92 -8 -96 -10 -4 -2 -10
0 -13 6 -5 8 -11 8 -20 0 -8 -7 -86 -12 -199 -15 -103 -2 -191 -7 -195 -10 -5
-2 -49 -7 -97 -10 -94 -5 -222 -16 -264 -21 -14 -2 -63 -6 -110 -9 -47 -3 -95
-10 -106 -16 -16 -8 -27 -8 -45 2 -14 7 -54 11 -99 10 -41 -1 -174 -3 -295 -6
-123 -2 -233 -9 -249 -15 -34 -12 -77 -4 -55 11 9 6 -4 8 -36 4 -27 -2 -88 -8
-135 -11 -139 -10 -151 -11 -245 -24 -49 -6 -137 -16 -195 -21 -194 -19 -236
-25 -217 -32 9 -4 25 -10 35 -14 26 -10 -48 -24 -148 -28 -47 -2 -91 -4 -97
-4 -7 -1 -13 -10 -13 -21 0 -16 5 -19 22 -15 22 5 77 13 246 37 74 10 86 10
120 -6 42 -21 191 -24 322 -6 41 5 103 13 138 17 35 3 58 9 52 13 -6 4 -34 3
-63 -2 -29 -4 -72 -7 -97 -6 -25 0 -104 -2 -176 -7 -91 -5 -133 -5 -138 3 -14
23 122 42 302 41 78 0 147 3 152 6 5 3 60 5 122 5 62 -1 124 -1 138 -1 l25 0
-22 -11 c-13 -6 -23 -15 -23 -20 0 -5 4 -7 9 -4 5 3 33 8 63 11 29 3 83 10
119 15 37 6 110 10 163 11 53 0 98 5 102 10 6 10 -20 13 -78 10 -21 -2 -43 1
-49 5 -13 7 -72 7 -279 -2 -82 -4 -122 -2 -115 4 12 12 424 22 431 10 3 -5 9
-6 14 -3 22 13 195 23 207 11 3 -3 -9 -6 -28 -7 -19 -1 -45 -5 -59 -10 -17 -6
-5 -7 39 -4 35 3 84 5 107 5 32 0 44 4 44 15 0 18 27 20 33 3 3 -10 36 -13
128 -11 102 1 125 5 136 18 6 10 17 14 23 10 7 -4 17 -1 22 6 7 11 11 11 15 2
2 -7 19 -13 36 -13 30 1 31 1 13 15 -11 8 -15 15 -9 15 7 0 18 -7 26 -14 16
-17 62 -20 252 -18 72 1 144 1 160 0 45 -4 125 12 125 24 0 6 10 8 25 4 16 -4
34 0 50 10 19 13 74 20 223 30 108 8 204 17 212 20 8 3 56 10 105 15 50 4 149
15 220 24 132 16 285 17 296 2 4 -5 16 -4 29 3 34 18 18 23 -74 21 -48 -1 -87
2 -91 8 -3 6 4 13 17 15 46 10 224 15 243 7 10 -4 37 -4 60 0 23 4 79 9 126
10 46 2 87 7 90 12 4 5 16 4 29 -3 15 -8 20 -8 16 -1 -5 7 4 11 23 11 17 0 31
-5 31 -10 0 -7 6 -7 20 0 28 15 26 -5 -2 -24 -18 -13 -19 -16 -6 -16 10 0 27
11 40 24 l23 23 195 -10 c147 -8 232 -7 345 2 410 34 480 37 870 41 205 2 257
-2 283 -23 7 -5 15 -8 18 -5 2 3 -12 14 -33 24 -34 16 -66 18 -298 17 -249 -1
-326 5 -240 18 l40 6 -41 2 c-22 0 -43 -1 -45 -3z m-2834 -225 c7 -13 -23 -21
-58 -17 -16 2 -46 0 -67 -5 -50 -11 -260 -19 -260 -9 0 4 80 12 178 19 97 7
179 15 181 17 7 7 20 4 26 -5z m-405 -31 c0 -5 -7 -7 -15 -4 -8 4 -15 8 -15
10 0 2 7 4 15 4 8 0 15 -4 15 -10z m-1386 -51 c-22 -9 -160 -12 -152 -3 9 8
140 21 157 15 11 -3 10 -6 -5 -12z"/>
<path d="M6903 1343 c9 -2 23 -2 30 0 6 3 -1 5 -18 5 -16 0 -22 -2 -12 -5z"/>
<path d="M6973 1343 c9 -2 25 -2 35 0 9 3 1 5 -18 5 -19 0 -27 -2 -17 -5z"/>
<path d="M5300 1218 c0 -15 83 -13 110 3 9 5 -8 8 -47 7 -35 -1 -63 -5 -63
-10z"/>
<path d="M5083 1213 c9 -2 23 -2 30 0 6 3 -1 5 -18 5 -16 0 -22 -2 -12 -5z"/>
<path d="M1858 1172 c-38 -2 -68 -7 -68 -13 0 -9 137 -3 148 6 9 7 -19 10 -80
7z"/>
<path d="M2150 1170 c0 -6 7 -10 15 -10 8 0 15 2 15 4 0 2 -7 6 -15 10 -8 3
-15 1 -15 -4z"/>
<path d="M1968 1163 c7 -3 16 -2 19 1 4 3 -2 6 -13 5 -11 0 -14 -3 -6 -6z"/>
<path d="M4638 1153 c7 -3 16 -2 19 1 4 3 -2 6 -13 5 -11 0 -14 -3 -6 -6z"/>
<path d="M5150 1128 c-12 -22 -12 -22 6 -6 10 10 15 20 12 24 -4 3 -12 -5 -18
-18z"/>
<path d="M2963 1123 c9 -2 23 -2 30 0 6 3 -1 5 -18 5 -16 0 -22 -2 -12 -5z"/>
<path d="M465 1050 c-3 -5 -1 -10 4 -10 6 0 11 5 11 10 0 6 -2 10 -4 10 -3 0
-8 -4 -11 -10z"/>
<path d="M2386 938 c-22 -65 -67 -511 -54 -531 11 -17 57 41 58 73 3 69 17 56
39 -37 30 -127 29 -123 39 -123 22 0 30 300 11 390 -6 27 -15 50 -20 50 -12 0
-11 -7 3 -33 7 -13 11 -67 10 -141 -1 -122 -15 -172 -27 -100 -4 22 -14 63
-22 93 -10 36 -15 102 -16 207 0 85 -4 157 -9 160 -4 3 -10 -1 -12 -8z"/>
<path d="M7770 910 c14 -4 32 -8 40 -9 13 -1 13 0 0 9 -8 5 -26 9 -40 9 l-25
-1 25 -8z"/>
<path d="M7658 903 c7 -3 16 -2 19 1 4 3 -2 6 -13 5 -11 0 -14 -3 -6 -6z"/>
<path d="M7578 893 c7 -3 16 -2 19 1 4 3 -2 6 -13 5 -11 0 -14 -3 -6 -6z"/>
<path d="M7513 883 c9 -2 25 -2 35 0 9 3 1 5 -18 5 -19 0 -27 -2 -17 -5z"/>
<path d="M1312 859 c2 -6 8 -10 13 -10 5 0 11 4 13 10 2 6 -4 11 -13 11 -9 0
-15 -5 -13 -11z"/>
<path d="M6698 763 c7 -3 16 -2 19 1 4 3 -2 6 -13 5 -11 0 -14 -3 -6 -6z"/>
<path d="M1665 430 c-3 -5 -1 -10 4 -10 6 0 11 5 11 10 0 6 -2 10 -4 10 -3 0
-8 -4 -11 -10z"/>
<path d="M2108 163 c7 -3 16 -2 19 1 4 3 -2 6 -13 5 -11 0 -14 -3 -6 -6z"/>
</g>
</svg>
